<svg xmlns="http://www.w3.org/2000/svg" xmlns:xlink="http://www.w3.org/1999/xlink" version="1.1" width="256" height="256" viewBox="0 0 256 256" xml:space="preserve">

<defs>
</defs>
<g style="stroke: none; stroke-width: 0; stroke-dasharray: none; stroke-linecap: butt; stroke-linejoin: miter; stroke-miterlimit: 10; fill: none; fill-rule: nonzero; opacity: 1;" transform="translate(1.4065934065934016 1.4065934065934016) scale(2.81 2.81)" >
	<polygon points="13.58,3.08 13.58,87.39 76.94,87.39 76.94,19.53 59.41,2 " style="stroke: none; stroke-width: 1; stroke-dasharray: none; stroke-linecap: butt; stroke-linejoin: miter; stroke-miterlimit: 10; fill: rgb(255,255,255); fill-rule: nonzero; opacity: 1;" transform="  matrix(1 0 0 1 0 0) "/>
	<path d="M 73.922 90 H 16.078 c -2.764 0 -5.013 -2.249 -5.013 -5.013 v -8.408 c 0 -1.104 0.896 -2 2 -2 s 2 0.896 2 2 v 8.408 c 0 0.559 0.455 1.013 1.013 1.013 h 57.844 c 0.559 0 1.013 -0.454 1.013 -1.013 V 20.358 L 58.577 4 H 16.078 c -0.559 0 -1.013 0.454 -1.013 1.013 v 41.021 c 0 1.104 -0.896 2 -2 2 s -2 -0.896 -2 -2 V 5.013 C 11.065 2.249 13.314 0 16.078 0 h 43.327 c 0.53 0 1.039 0.211 1.414 0.586 l 17.529 17.529 c 0.375 0.375 0.586 0.884 0.586 1.414 v 65.458 C 78.935 87.751 76.686 90 73.922 90 z" style="stroke: none; stroke-width: 1; stroke-dasharray: none; stroke-linecap: butt; stroke-linejoin: miter; stroke-miterlimit: 10; fill: rgb(196,28,28); fill-rule: nonzero; opacity: 1;" transform=" matrix(1 0 0 1 0 0) " stroke-linecap="round" />
	<path d="M 63.35 78.403 H 8.469 c -1.892 0 -3.427 -1.534 -3.427 -3.427 V 48.164 c 0 -1.892 1.534 -3.427 3.427 -3.427 H 63.35 c 1.892 0 3.427 1.534 3.427 3.427 v 26.813 C 66.777 76.869 65.243 78.403 63.35 78.403 z" style="stroke: none; stroke-width: 1; stroke-dasharray: none; stroke-linecap: butt; stroke-linejoin: miter; stroke-miterlimit: 10; fill: rgb(196,28,28); fill-rule: nonzero; opacity: 1;" transform=" matrix(1 0 0 1 0 0) " stroke-linecap="round" />
	<path d="M 21.072 64.789 h -5.996 c -0.829 0 -1.5 -0.672 -1.5 -1.5 V 53.35 c 0 -0.828 0.671 -1.5 1.5 -1.5 h 5.996 c 2.406 0 4.363 1.957 4.363 4.363 v 4.213 C 25.435 62.832 23.478 64.789 21.072 64.789 z M 16.577 61.789 h 4.496 c 0.751 0 1.363 -0.611 1.363 -1.363 v -4.213 c 0 -0.752 -0.611 -1.363 -1.363 -1.363 h -4.496 V 61.789 z" style="stroke: none; stroke-width: 1; stroke-dasharray: none; stroke-linecap: butt; stroke-linejoin: miter; stroke-miterlimit: 10; fill: rgb(255,255,255); fill-rule: nonzero; opacity: 1;" transform=" matrix(1 0 0 1 0 0) " stroke-linecap="round" />
	<path d="M 15.077 71.595 c -0.829 0 -1.5 -0.672 -1.5 -1.5 v -6.806 c 0 -0.828 0.671 -1.5 1.5 -1.5 s 1.5 0.672 1.5 1.5 v 6.806 C 16.577 70.923 15.905 71.595 15.077 71.595 z" style="stroke: none; stroke-width: 1; stroke-dasharray: none; stroke-linecap: butt; stroke-linejoin: miter; stroke-miterlimit: 10; fill: rgb(255,255,255); fill-rule: nonzero; opacity: 1;" transform=" matrix(1 0 0 1 0 0) " stroke-linecap="round" />
	<path d="M 37.196 71.595 h -5.702 c -0.829 0 -1.5 -0.672 -1.5 -1.5 V 53.35 c 0 -0.828 0.671 -1.5 1.5 -1.5 h 5.702 c 2.568 0 4.657 2.09 4.657 4.658 v 10.43 C 41.853 69.506 39.764 71.595 37.196 71.595 z M 32.994 68.595 h 4.202 c 0.914 0 1.657 -0.743 1.657 -1.657 v -10.43 c 0 -0.914 -0.744 -1.658 -1.657 -1.658 h -4.202 V 68.595 z" style="stroke: none; stroke-width: 1; stroke-dasharray: none; stroke-linecap: butt; stroke-linejoin: miter; stroke-miterlimit: 10; fill: rgb(255,255,255); fill-rule: nonzero; opacity: 1;" transform=" matrix(1 0 0 1 0 0) " stroke-linecap="round" />
	<path d="M 48.218 71.595 c -0.828 0 -1.5 -0.672 -1.5 -1.5 V 53.35 c 0 -0.828 0.672 -1.5 1.5 -1.5 s 1.5 0.672 1.5 1.5 v 16.745 C 49.718 70.923 49.046 71.595 48.218 71.595 z" style="stroke: none; stroke-width: 1; stroke-dasharray: none; stroke-linecap: butt; stroke-linejoin: miter; stroke-miterlimit: 10; fill: rgb(255,255,255); fill-rule: nonzero; opacity: 1;" transform=" matrix(1 0 0 1 0 0) " stroke-linecap="round" />
	<path d="M 57.076 54.85 h -8.858 c -0.828 0 -1.5 -0.672 -1.5 -1.5 s 0.672 -1.5 1.5 -1.5 h 8.858 c 0.828 0 1.5 0.672 1.5 1.5 S 57.904 54.85 57.076 54.85 z" style="stroke: none; stroke-width: 1; stroke-dasharray: none; stroke-linecap: butt; stroke-linejoin: miter; stroke-miterlimit: 10; fill: rgb(255,255,255); fill-rule: nonzero; opacity: 1;" transform=" matrix(1 0 0 1 0 0) " stroke-linecap="round" />
	<path d="M 54.02 63.223 h -5.802 c -0.828 0 -1.5 -0.672 -1.5 -1.5 s 0.672 -1.5 1.5 -1.5 h 5.802 c 0.828 0 1.5 0.672 1.5 1.5 S 54.848 63.223 54.02 63.223 z" style="stroke: none; stroke-width: 1; stroke-dasharray: none; stroke-linecap: butt; stroke-linejoin: miter; stroke-miterlimit: 10; fill: rgb(255,255,255); fill-rule: nonzero; opacity: 1;" transform=" matrix(1 0 0 1 0 0) " stroke-linecap="round" />
	<path d="M 76.935 21.529 H 62.15 c -2.616 0 -4.745 -2.128 -4.745 -4.745 V 2 c 0 -0.809 0.487 -1.538 1.234 -1.848 c 0.749 -0.31 1.607 -0.14 2.18 0.434 l 17.529 17.529 c 0.572 0.572 0.743 1.432 0.434 2.179 C 78.473 21.042 77.743 21.529 76.935 21.529 z M 61.405 6.829 v 9.956 c 0 0.411 0.334 0.745 0.745 0.745 h 9.956 L 61.405 6.829 z" style="stroke: none; stroke-width: 1; stroke-dasharray: none; stroke-linecap: butt; stroke-linejoin: miter; stroke-miterlimit: 10; fill: rgb(196,28,28); fill-rule: nonzero; opacity: 1;" transform=" matrix(1 0 0 1 0 0) " stroke-linecap="round" />
	<path d="M 76.935 19.529 H 62.151 c -1.516 0 -2.745 -1.229 -2.745 -2.745 V 2 L 76.935 19.529 z" style="stroke: none; stroke-width: 1; stroke-dasharray: none; stroke-linecap: butt; stroke-linejoin: miter; stroke-miterlimit: 10; fill: rgb(196,28,28); fill-rule: nonzero; opacity: 1;" transform=" matrix(1 0 0 1 0 0) " stroke-linecap="round" />
</g>
</svg>